HIERARCHY
ROOT Hips
{
 OFFSET 0.000000 0.000000 0.000000
 CHANNELS 6 Xposition Yposition Zposition Yrotation Xrotation Zrotation
 JOINT Chest
 {
  OFFSET 0.000000 9.303000 0.001900
  CHANNELS 3 Yrotation Xrotation Zrotation
  JOINT Chest2
  {
   OFFSET 0.000000 9.301100 -0.003900
   CHANNELS 3 Yrotation Xrotation Zrotation
   JOINT Chest3
   {
    OFFSET 0.000000 9.262800 0.000000
    CHANNELS 3 Yrotation Xrotation Zrotation
    JOINT Chest4
    {
     OFFSET 0.000000 9.253300 0.000000
     CHANNELS 3 Yrotation Xrotation Zrotation
     JOINT Neck
     {
      OFFSET 0.000000 14.010300 0.000000
      CHANNELS 3 Yrotation Xrotation Zrotation
      JOINT Head
      {
       OFFSET 0.000000 8.657600 -0.008300
       CHANNELS 3 Yrotation Xrotation Zrotation
       End Site
       {
        OFFSET 0.000000 16.540200 -0.004400
       }
      }
     }
     JOINT RightCollar
     {
      OFFSET -2.834100 9.267700 0.000000
      CHANNELS 3 Yrotation Xrotation Zrotation
      JOINT RightShoulder
      {
       OFFSET -13.135200 0.000000 0.000000
       CHANNELS 3 Yrotation Xrotation Zrotation
       JOINT RightElbow
       {
        OFFSET 0.000000 -28.893500 0.000000
        CHANNELS 3 Yrotation Xrotation Zrotation
        JOINT RightWrist
        {
         OFFSET 0.000000 -23.344000 0.000000
         CHANNELS 3 Yrotation Xrotation Zrotation
         End Site
         {
          OFFSET 0.000000 -17.223000 0.000000
         }
        }
       }
      }
     }
     JOINT LeftCollar
     {
      OFFSET 2.834100 9.267700 0.000000
      CHANNELS 3 Yrotation Xrotation Zrotation
      JOINT LeftShoulder
      {
       OFFSET 13.135200 0.000000 0.000000
       CHANNELS 3 Yrotation Xrotation Zrotation
       JOINT LeftElbow
       {
        OFFSET 0.000000 -28.893500 0.000000
        CHANNELS 3 Yrotation Xrotation Zrotation
        JOINT LeftWrist
        {
         OFFSET 0.000000 -23.344000 0.000000
         CHANNELS 3 Yrotation Xrotation Zrotation
         End Site
         {
          OFFSET 0.000000 -17.223000 0.000000
         }
        }
       }
      }
     }
    }
   }
  }
 }
 JOINT RightHip
 {
  OFFSET -7.547200 -0.009500 -0.001000
  CHANNELS 3 Yrotation Xrotation Zrotation
  JOINT RightKnee
  {
   OFFSET 0.000000 -39.762800 0.000900
   CHANNELS 3 Yrotation Xrotation Zrotation
   JOINT RightAnkle
   {
    OFFSET 0.000000 -38.588200 0.001600
    CHANNELS 3 Yrotation Xrotation Zrotation
    JOINT RightToe
    {
     OFFSET 0.000000 -4.693300 10.419700
     CHANNELS 3 Yrotation Xrotation Zrotation
     End Site
     {
      OFFSET 0.000000 -1.379900 5.669300
     }
    }
   }
  }
 }
 JOINT LeftHip
 {
  OFFSET 7.547200 -0.009500 -0.001000
  CHANNELS 3 Yrotation Xrotation Zrotation
  JOINT LeftKnee
  {
   OFFSET 0.000000 -39.762800 0.000900
   CHANNELS 3 Yrotation Xrotation Zrotation
   JOINT LeftAnkle
   {
    OFFSET 0.000000 -38.588200 0.001600
    CHANNELS 3 Yrotation Xrotation Zrotation
    JOINT LeftToe
    {
     OFFSET 0.000000 -4.693300 10.419700
     CHANNELS 3 Yrotation Xrotation Zrotation
     End Site
     {
      OFFSET 0.000000 -1.379900 5.669300
     }
    }
   }
  }
 }
}
MOTION
Frames: 16
Frame Time: 0.008333
3.216743 45.887608 9.223024 162.375412 -13.664027 0.222127 -1.446783 6.592563 2.690658 -0.070162 0.290053 0.133305 -0.108821 0.482463 0.237459 -1.352803 6.237772 2.791510 10.991260 23.956477 0.205462 12.257521 0.854587 -2.301951 9.420718 -3.252256 -13.880367 -11.921289 -45.133417 -44.132459 -152.647076 -57.443613 177.293830 -15.471112 -10.340219 -6.918294 -8.171704 -7.310207 1.817207 40.181858 -42.157414 34.125626 93.649337 -42.186520 -138.737455 14.792229 -2.594694 -16.264765 -16.271434 -73.954273 15.405761 -144.334983 85.184399 -144.873526 -11.543877 -11.303954 -1.126757 -0.005716 -0.149430 -0.048323 -8.846406 -71.882348 31.384239 95.306544 77.446429 94.895441 -10.015754 -9.074090 -1.804989 0.114487 0.408890 0.014000
3.218601 45.884998 9.225627 162.397147 -13.697626 0.227765 -1.399375 6.498166 2.713778 -0.066412 0.281361 0.131128 -0.116068 0.493615 0.229699 -1.305110 6.161411 2.792610 11.044417 24.009250 0.257059 12.309056 0.923880 -2.256005 9.470549 -2.911987 -13.453638 -12.179677 -45.176934 -43.252113 -152.979217 -57.545220 177.466935 -15.512066 -10.327593 -6.910554 -8.159453 -7.019845 1.554685 39.849632 -41.873397 33.306465 93.507630 -42.448959 -138.048478 14.796815 -2.541733 -16.311605 -16.430882 -73.912916 15.486274 -143.963859 85.174979 -144.447610 -11.845872 -11.319406 -1.141337 -0.054581 -0.157191 -0.079206 -8.932715 -71.840000 31.366148 95.192851 77.449900 94.855538 -10.023622 -9.040155 -1.900215 0.193503 0.392466 0.026594
3.223757 45.880420 9.237331 162.419333 -13.693686 0.201608 -1.340419 6.378394 2.766847 -0.062894 0.273606 0.129060 -0.110031 0.480227 0.226203 -1.250516 6.077069 2.791713 11.101787 24.064848 0.317740 12.363380 0.996916 -2.200753 9.527787 -2.561083 -13.006331 -12.420707 -45.193755 -42.371724 -153.397653 -57.660652 177.676293 -15.539464 -10.305056 -6.898620 -8.185847 -6.706726 1.263156 39.469877 -41.597506 32.485657 93.350664 -42.735133 -137.275220 14.784620 -2.467972 -16.383071 -16.756888 -73.899603 15.673897 -144.392633 85.190636 -144.887185 -11.603397 -11.301234 -1.186413 -0.019696 -0.180698 -0.095795 -9.106702 -71.833207 31.460034 95.080160 77.451816 94.797447 -10.041212 -9.068622 -1.984700 0.258590 0.439850 0.054865
3.226371 45.875588 9.248196 162.442732 -13.700642 0.195810 -1.268421 6.260553 2.802338 -0.059127 0.265486 0.126809 -0.103557 0.466109 0.222328 -1.190160 5.987398 2.789226 11.162859 24.127427 0.384398 12.420886 1.078816 -2.139517 9.592744 -2.201455 -12.546126 -12.657532 -45.192283 -41.488429 -153.878815 -57.785594 177.907910 -15.556504 -10.275747 -6.879534 -8.243521 -6.371427 0.937892 39.059454 -41.343171 31.671463 93.157980 -43.026923 -136.415897 14.757601 -2.383629 -16.476702 -17.031249 -73.882391 15.784431 -144.957569 85.204979 -145.469503 -11.277204 -11.298332 -1.244788 0.033932 -0.188664 -0.102822 -9.243080 -71.816409 31.491892 94.976666 77.424621 94.729765 -9.999243 -9.044893 -2.037642 0.251176 0.439371 0.050468
3.223488 45.870214 9.257690 162.495934 -13.715011 0.221328 -1.213729 6.142132 2.802049 -0.055194 0.257091 0.124377 -0.096657 0.451545 0.218193 -1.123820 5.893608 2.785138 11.226490 24.201480 0.456706 12.480453 1.175002 -2.072386 9.663823 -1.835954 -12.080048 -12.901204 -45.174596 -40.591146 -154.404122 -57.920458 178.153437 -15.569413 -10.239419 -6.850508 -8.330296 -6.020477 0.580089 38.634541 -41.116998 30.863657 92.907606 -43.323039 -135.463805 14.728147 -2.297188 -16.593153 -17.227668 -73.867378 15.790136 -145.301746 85.210897 -145.806327 -11.136892 -11.313782 -1.298902 0.056882 -0.187276 -0.112186 -9.323180 -71.795820 31.407279 94.856619 77.376401 94.640570 -9.931107 -8.998253 -2.102288 0.231923 0.424242 0.041154
3.221113 45.864555 9.265742 162.506679 -13.746525 0.259559 -1.100313 6.036691 2.800876 -0.051036 0.248484 0.121790 -0.089288 0.436714 0.213805 -1.050670 5.796406 2.779619 11.292392 24.289802 0.537899 12.540871 1.288924 -1.995569 9.738414 -1.468853 -11.611111 -13.155844 -45.141654 -39.673982 -154.945562 -58.079257 178.397753 -15.590158 -10.195939 -6.812192 -8.448454 -5.665476 0.197352 38.203876 -40.913488 30.058724 92.587846 -43.625595 -134.412689 14.705931 -2.205834 -16.723553 -17.392610 -73.834040 15.789001 -145.636848 85.221287 -146.131234 -10.981933 -11.342332 -1.360469 0.070351 -0.170207 -0.125012 -9.328696 -71.761267 31.304084 94.806696 77.318343 94.594732 -9.830845 -8.928829 -2.113216 0.148410 0.376624 0.002597
3.217451 45.856516 9.280173 162.592480 -13.742607 0.278298 -1.039283 5.896161 2.805090 -0.046751 0.239870 0.119097 -0.081826 0.421909 0.209209 -0.973651 5.697590 2.772438 11.361549 24.391911 0.629339 12.603054 1.420097 -1.907689 9.813766 -1.106334 -11.142447 -13.416195 -45.095948 -38.739275 -155.492999 -58.270962 178.631384 -15.626851 -10.148249 -6.763042 -8.596118 -5.322265 -0.202961 37.765814 -40.714512 29.262337 92.209108 -43.929374 -133.269973 14.692284 -2.108430 -16.844816 -17.715216 -73.826198 15.898090 -145.488981 85.222412 -145.935023 -11.148362 -11.366888 -1.412684 0.033437 -0.171489 -0.146795 -9.440512 -71.761919 31.221338 94.603294 77.291476 94.450915 -9.849062 -8.913190 -2.182806 0.212746 0.404343 -0.003777
3.210067 45.849419 9.285898 162.751608 -13.787603 0.319949 -1.034006 5.808603 2.771884 -0.042454 0.231452 0.116284 -0.074427 0.407359 0.204409 -0.894322 5.599351 2.761851 11.433027 24.503545 0.730660 12.665997 1.563132 -1.809072 9.891551 -0.758111 -10.673905 -13.674615 -45.030235 -37.804501 -156.028495 -58.493788 178.831056 -15.674954 -10.101598 -6.705867 -8.773581 -4.996555 -0.613865 37.311891 -40.507885 28.486394 91.790104 -44.229608 -132.044555 14.694592 -2.020482 -16.932174 -17.979152 -73.784068 15.859635 -145.383337 85.201504 -145.777855 -11.387203 -11.412993 -1.458340 -0.022226 -0.175631 -0.174966 -9.479429 -71.720990 30.981726 94.370225 77.264074 94.278541 -9.850593 -8.840414 -2.285358 0.282978 0.381578 0.020984
3.206584 45.840479 9.297002 162.878500 -13.807824 0.339192 -0.975326 5.703037 2.773210 -0.038142 0.223415 0.113374 -0.066898 0.393372 0.199451 -0.810639 5.504107 2.747443 11.503376 24.617978 0.840682 12.725665 1.709428 -1.700346 9.975314 -0.432006 -10.205051 -13.934862 -44.944315 -36.884191 -156.515595 -58.743987 178.969386 -15.730297 -10.059274 -6.652944 -8.987367 -4.682638 -1.033276 36.838492 -40.297518 27.737113 91.340826 -44.525319 -130.741200 14.718421 -1.955816 -16.973860 -18.390637 -73.758500 15.937312 -145.855602 85.192047 -146.249771 -11.158466 -11.432711 -1.543814 -0.007069 -0.187240 -0.191170 -9.593739 -71.700860 30.853911 94.168963 77.225172 94.123968 -9.809811 -8.785221 -2.373996 0.267548 0.373402 0.051113
3.203897 45.830215 9.310800 163.007154 -13.812025 0.351881 -0.899140 5.587541 2.784741 -0.033799 0.215829 0.110442 -0.059196 0.380207 0.194465 -0.720776 5.413332 2.730750 11.569323 24.728503 0.956061 12.778726 1.850381 -1.584496 10.066288 -0.130478 -9.740943 -14.208918 -44.847889 -35.972713 -156.940608 -59.026818 179.043338 -15.792434 -10.024486 -6.606814 -9.244221 -4.375302 -1.458659 36.350746 -40.091413 27.015838 90.879722 -44.817464 -129.373525 14.764534 -1.907558 -16.956722 -18.888802 -73.745706 16.068773 -146.537037 85.185223 -146.945903 -10.762741 -11.441340 -1.649385 0.027586 -0.201275 -0.203518 -9.751897 -71.696793 30.758419 93.961353 77.177122 93.961721 -9.746008 -8.724798 -2.459398 0.272831 0.368954 0.045808
3.197517 45.819649 9.322489 163.159472 -13.820228 0.388734 -0.829041 5.481936 2.769618 -0.029259 0.208617 0.107543 -0.051231 0.367820 0.189526 -0.622712 5.326776 2.712739 11.628612 24.829843 1.072014 12.823539 1.979265 -1.466460 10.158369 0.144622 -9.284710 -14.497482 -44.749851 -35.062843 -157.331098 -59.365883 179.082719 -15.870767 -10.008293 -6.564468 -9.544490 -4.065780 -1.878603 35.853095 -39.902552 26.310939 90.413837 -45.121471 -127.938732 14.829538 -1.876305 -16.874592 -19.337611 -73.737578 16.135026 -146.951007 85.169045 -147.343724 -10.571131 -11.459854 -1.750126 0.022294 -0.213700 -0.222811 -9.846043 -71.696673 30.567237 93.748764 77.125872 93.796341 -9.700183 -8.648011 -2.536614 0.273929 0.349762 0.046733
3.189545 45.809004 9.332792 163.326056 -13.831717 0.439101 -0.753794 5.384978 2.741151 -0.024465 0.201878 0.104725 -0.042955 0.356139 0.184708 -0.515807 5.244133 2.694024 11.680358 24.918044 1.182040 12.860620 2.091346 -1.353507 10.241641 0.389531 -8.835502 -14.785135 -44.655643 -34.161954 -157.720418 -59.775782 179.119468 -15.970990 -10.016696 -6.533275 -9.878331 -3.748187 -2.281156 35.344914 -39.743605 25.607861 89.908018 -45.449131 -126.401384 14.902833 -1.874849 -16.743552 -19.754970 -73.733069 16.152810 -147.273187 85.147819 -147.627969 -10.471932 -11.480024 -1.853481 -0.002510 -0.228978 -0.246016 -9.887038 -71.699670 30.311430 93.531771 77.078727 93.631820 -9.689550 -8.569681 -2.589114 0.311528 0.327839 0.029345
3.189008 45.797918 9.346802 163.517326 -13.832150 0.438997 -0.680440 5.281521 2.762427 -0.019682 0.195703 0.102005 -0.034592 0.345320 0.180077 -0.403538 5.166705 2.674125 11.727821 24.990906 1.279950 12.895269 2.184551 -1.253329 10.314825 0.604241 -8.399843 -15.065908 -44.567890 -33.274187 -158.111937 -60.253133 179.151797 -16.080455 -10.043680 -6.521432 -10.231631 -3.429853 -2.659797 34.827629 -39.613790 24.912554 89.344395 -45.788597 -124.752175 14.976628 -1.899045 -16.583371 -20.362255 -73.723260 16.312963 -147.898222 85.135043 -148.222871 -10.196281 -11.467448 -1.974754 -0.009059 -0.267689 -0.269041 -10.011694 -71.709513 30.176908 93.272784 77.081511 93.437691 -9.760013 -8.561786 -2.686969 0.396578 0.369018 0.091833
3.180862 45.787047 9.359085 163.699490 -13.827892 0.495622 -0.588916 5.177154 2.734977 -0.015099 0.190078 0.099482 -0.026449 0.335582 0.175711 -0.290498 5.095662 2.653648 11.775455 25.047868 1.360522 12.934042 2.258859 -1.172731 10.379176 0.792468 -7.992577 -15.351963 -44.493130 -32.390048 -158.498952 -60.798128 179.174560 -16.187699 -10.088771 -6.535404 -10.592931 -3.121441 -3.012877 34.304818 -39.511456 24.237925 88.724914 -46.125645 -122.999330 15.045904 -1.929646 -16.405424 -20.810124 -73.741113 16.285546 -148.895881 85.127329 -149.201271 -9.821954 -11.472510 -2.106804 0.014452 -0.281386 -0.283974 -10.024033 -71.733867 29.854069 93.028409 77.008825 93.251335 -9.677175 -8.482781 -2.745451 0.345591 0.350636 0.075596
3.170604 45.777019 9.369759 163.902999 -13.829388 0.569675 -0.506435 5.084593 2.692978 -0.010731 0.185006 0.097215 -0.018677 0.326797 0.171735 -0.179001 5.029561 2.634859 11.825455 25.089851 1.420402 12.980415 2.315685 -1.115981 10.432212 0.955903 -7.626619 -15.650056 -44.432651 -31.508410 -158.875024 -61.411892 179.184039 -16.289921 -10.151057 -6.578504 -10.953033 -2.831696 -3.337679 33.773823 -39.437279 23.587933 88.031825 -46.450091 -121.130119 15.100684 -1.947841 -16.226816 -21.212479 -73.758507 16.198162 -149.740412 85.116978 -150.000269 -9.637037 -11.496576 -2.230430 0.008129 -0.286988 -0.303286 -9.949874 -71.759293 29.422564 92.744395 76.932459 93.034225 -9.602505 -8.399894 -2.804745 0.325045 0.334700 0.049264
3.163344 45.768110 9.380039 164.113801 -13.838890 0.632776 -0.418788 5.007210 2.667707 -0.006532 0.180388 0.095074 -0.011267 0.318707 0.168124 -0.069197 4.966942 2.617137 11.881527 25.118017 1.461074 13.038453 2.356865 -1.082302 10.477980 1.093370 -7.305130 -15.932905 -44.366590 -30.653800 -159.267150 -62.093367 179.182469 -16.387755 -10.221738 -6.647463 -11.308727 -2.573652 -3.628514 33.228734 -39.385180 22.968495 87.244962 -46.754237 -119.130866 15.136720 -1.937411 -16.067997 -21.650562 -73.761263 16.140520 -150.491873 85.106909 -150.687812 -9.548254 -11.527563 -2.355394 -0.016598 -0.293157 -0.324390 -9.856706 -71.777862 28.997844 92.425550 76.877452 92.790299 -9.579856 -8.327052 -2.873348 0.349710 0.328361 0.045054
